<mxfile host="Electron" modified="2024-08-09T14:19:09.056Z" agent="Mozilla/5.0 (X11; Linux x86_64) AppleWebKit/537.36 (KHTML, like Gecko) draw.io/24.6.4 Chrome/124.0.6367.207 Electron/30.0.6 Safari/537.36" etag="-lsjKBE1s8DAjtvodrfA" version="24.6.4" type="device">
  <diagram name="Page-1" id="ufieSWmg_GqiN_KSoW8g">
    <mxGraphModel dx="1289" dy="899" grid="1" gridSize="10" guides="1" tooltips="1" connect="1" arrows="1" fold="1" page="1" pageScale="1" pageWidth="827" pageHeight="1169" math="0" shadow="0">
      <root>
        <mxCell id="0" />
        <mxCell id="1" parent="0" />
        <mxCell id="owBhPox71xXeygqlEQB7-4" value="" style="edgeStyle=orthogonalEdgeStyle;rounded=0;orthogonalLoop=1;jettySize=auto;html=1;" parent="1" source="owBhPox71xXeygqlEQB7-1" target="owBhPox71xXeygqlEQB7-2" edge="1">
          <mxGeometry relative="1" as="geometry" />
        </mxCell>
        <mxCell id="owBhPox71xXeygqlEQB7-5" value="&quot;menu&quot;" style="edgeLabel;html=1;align=center;verticalAlign=middle;resizable=0;points=[];" parent="owBhPox71xXeygqlEQB7-4" vertex="1" connectable="0">
          <mxGeometry x="-0.24" y="3" relative="1" as="geometry">
            <mxPoint as="offset" />
          </mxGeometry>
        </mxCell>
        <mxCell id="owBhPox71xXeygqlEQB7-1" value="Espera" style="ellipse;whiteSpace=wrap;html=1;" parent="1" vertex="1">
          <mxGeometry x="300" y="210" width="140" height="70" as="geometry" />
        </mxCell>
        <mxCell id="owBhPox71xXeygqlEQB7-7" style="edgeStyle=orthogonalEdgeStyle;rounded=0;orthogonalLoop=1;jettySize=auto;html=1;exitX=0;exitY=1;exitDx=0;exitDy=0;entryX=1;entryY=0.5;entryDx=0;entryDy=0;" parent="1" source="owBhPox71xXeygqlEQB7-2" target="owBhPox71xXeygqlEQB7-27" edge="1">
          <mxGeometry relative="1" as="geometry">
            <mxPoint x="220" y="520" as="targetPoint" />
            <Array as="points">
              <mxPoint x="321" y="430" />
              <mxPoint x="220" y="430" />
              <mxPoint x="220" y="445" />
            </Array>
          </mxGeometry>
        </mxCell>
        <mxCell id="owBhPox71xXeygqlEQB7-8" value="&quot;1&quot; ALeerSSID" style="edgeLabel;html=1;align=center;verticalAlign=middle;resizable=0;points=[];" parent="owBhPox71xXeygqlEQB7-7" vertex="1" connectable="0">
          <mxGeometry x="-0.183" y="-1" relative="1" as="geometry">
            <mxPoint as="offset" />
          </mxGeometry>
        </mxCell>
        <mxCell id="owBhPox71xXeygqlEQB7-10" style="edgeStyle=orthogonalEdgeStyle;rounded=0;orthogonalLoop=1;jettySize=auto;html=1;exitX=0.5;exitY=1;exitDx=0;exitDy=0;entryX=0.75;entryY=0;entryDx=0;entryDy=0;" parent="1" source="owBhPox71xXeygqlEQB7-2" target="owBhPox71xXeygqlEQB7-28" edge="1">
          <mxGeometry relative="1" as="geometry">
            <mxPoint x="413.73373542533454" y="740.369959598882" as="targetPoint" />
          </mxGeometry>
        </mxCell>
        <mxCell id="owBhPox71xXeygqlEQB7-11" value="&quot;2&quot; ALeerPSW" style="edgeLabel;html=1;align=center;verticalAlign=middle;resizable=0;points=[];" parent="owBhPox71xXeygqlEQB7-10" vertex="1" connectable="0">
          <mxGeometry x="0.4417" relative="1" as="geometry">
            <mxPoint y="1" as="offset" />
          </mxGeometry>
        </mxCell>
        <mxCell id="owBhPox71xXeygqlEQB7-13" style="edgeStyle=orthogonalEdgeStyle;rounded=0;orthogonalLoop=1;jettySize=auto;html=1;exitX=1;exitY=1;exitDx=0;exitDy=0;entryX=0.5;entryY=0;entryDx=0;entryDy=0;" parent="1" source="owBhPox71xXeygqlEQB7-2" target="owBhPox71xXeygqlEQB7-12" edge="1">
          <mxGeometry relative="1" as="geometry">
            <mxPoint x="580" y="570" as="targetPoint" />
            <Array as="points">
              <mxPoint x="419" y="460" />
              <mxPoint x="581" y="460" />
              <mxPoint x="581" y="620" />
              <mxPoint x="570" y="620" />
            </Array>
          </mxGeometry>
        </mxCell>
        <mxCell id="owBhPox71xXeygqlEQB7-14" value="&quot;3&quot; AEscribirSSID" style="edgeLabel;html=1;align=center;verticalAlign=middle;resizable=0;points=[];" parent="owBhPox71xXeygqlEQB7-13" vertex="1" connectable="0">
          <mxGeometry x="-0.1587" y="-1" relative="1" as="geometry">
            <mxPoint x="-36" as="offset" />
          </mxGeometry>
        </mxCell>
        <mxCell id="owBhPox71xXeygqlEQB7-17" style="edgeStyle=orthogonalEdgeStyle;rounded=0;orthogonalLoop=1;jettySize=auto;html=1;exitX=1;exitY=0.5;exitDx=0;exitDy=0;entryX=0.5;entryY=0;entryDx=0;entryDy=0;" parent="1" source="owBhPox71xXeygqlEQB7-2" target="owBhPox71xXeygqlEQB7-16" edge="1">
          <mxGeometry relative="1" as="geometry" />
        </mxCell>
        <mxCell id="owBhPox71xXeygqlEQB7-18" value="&quot;4&quot; AEscribirPSW" style="edgeLabel;html=1;align=center;verticalAlign=middle;resizable=0;points=[];" parent="owBhPox71xXeygqlEQB7-17" vertex="1" connectable="0">
          <mxGeometry x="-0.0734" relative="1" as="geometry">
            <mxPoint as="offset" />
          </mxGeometry>
        </mxCell>
        <mxCell id="owBhPox71xXeygqlEQB7-2" value="menu" style="ellipse;whiteSpace=wrap;html=1;" parent="1" vertex="1">
          <mxGeometry x="300" y="320" width="140" height="70" as="geometry" />
        </mxCell>
        <mxCell id="owBhPox71xXeygqlEQB7-12" value="Escribir_SSID" style="ellipse;whiteSpace=wrap;html=1;" parent="1" vertex="1">
          <mxGeometry x="500" y="675" width="140" height="70" as="geometry" />
        </mxCell>
        <mxCell id="owBhPox71xXeygqlEQB7-16" value="Escribir_PSW" style="ellipse;whiteSpace=wrap;html=1;" parent="1" vertex="1">
          <mxGeometry x="660" y="470" width="140" height="70" as="geometry" />
        </mxCell>
        <mxCell id="owBhPox71xXeygqlEQB7-19" style="edgeStyle=orthogonalEdgeStyle;rounded=0;orthogonalLoop=1;jettySize=auto;html=1;exitX=0;exitY=0.25;exitDx=0;exitDy=0;entryX=0;entryY=0.5;entryDx=0;entryDy=0;" parent="1" source="owBhPox71xXeygqlEQB7-27" target="owBhPox71xXeygqlEQB7-2" edge="1">
          <mxGeometry relative="1" as="geometry">
            <mxPoint x="170.50252531694173" y="530.2512626584709" as="sourcePoint" />
            <Array as="points">
              <mxPoint x="50" y="432" />
              <mxPoint x="50" y="330" />
              <mxPoint x="160" y="330" />
              <mxPoint x="160" y="355" />
            </Array>
          </mxGeometry>
        </mxCell>
        <mxCell id="owBhPox71xXeygqlEQB7-22" value="&quot;SI&quot; AMenu" style="edgeLabel;html=1;align=center;verticalAlign=middle;resizable=0;points=[];" parent="owBhPox71xXeygqlEQB7-19" vertex="1" connectable="0">
          <mxGeometry x="-0.4416" relative="1" as="geometry">
            <mxPoint x="70" y="-9" as="offset" />
          </mxGeometry>
        </mxCell>
        <mxCell id="owBhPox71xXeygqlEQB7-20" style="edgeStyle=orthogonalEdgeStyle;rounded=0;orthogonalLoop=1;jettySize=auto;html=1;entryX=0.357;entryY=1;entryDx=0;entryDy=0;entryPerimeter=0;exitX=0.339;exitY=0.04;exitDx=0;exitDy=0;exitPerimeter=0;" parent="1" source="owBhPox71xXeygqlEQB7-28" target="owBhPox71xXeygqlEQB7-2" edge="1">
          <mxGeometry relative="1" as="geometry">
            <mxPoint x="364" y="730" as="sourcePoint" />
            <Array as="points">
              <mxPoint x="177" y="580" />
              <mxPoint x="150" y="580" />
              <mxPoint x="150" y="480" />
              <mxPoint x="350" y="480" />
            </Array>
          </mxGeometry>
        </mxCell>
        <mxCell id="owBhPox71xXeygqlEQB7-21" value="&quot;SI&quot; AMenu" style="edgeLabel;html=1;align=center;verticalAlign=middle;resizable=0;points=[];" parent="owBhPox71xXeygqlEQB7-20" vertex="1" connectable="0">
          <mxGeometry x="-0.4736" y="-2" relative="1" as="geometry">
            <mxPoint x="-4" y="-108" as="offset" />
          </mxGeometry>
        </mxCell>
        <mxCell id="owBhPox71xXeygqlEQB7-29" value="&quot;SI&quot; AMenu" style="edgeLabel;html=1;align=center;verticalAlign=middle;resizable=0;points=[];" parent="owBhPox71xXeygqlEQB7-20" vertex="1" connectable="0">
          <mxGeometry x="-0.5026" y="2" relative="1" as="geometry">
            <mxPoint as="offset" />
          </mxGeometry>
        </mxCell>
        <mxCell id="owBhPox71xXeygqlEQB7-23" style="edgeStyle=orthogonalEdgeStyle;rounded=0;orthogonalLoop=1;jettySize=auto;html=1;exitX=0;exitY=0;exitDx=0;exitDy=0;entryX=0.74;entryY=0.954;entryDx=0;entryDy=0;entryPerimeter=0;" parent="1" source="owBhPox71xXeygqlEQB7-12" target="owBhPox71xXeygqlEQB7-2" edge="1">
          <mxGeometry relative="1" as="geometry">
            <Array as="points">
              <mxPoint x="521" y="640" />
              <mxPoint x="480" y="640" />
              <mxPoint x="480" y="510" />
              <mxPoint x="404" y="510" />
            </Array>
          </mxGeometry>
        </mxCell>
        <mxCell id="owBhPox71xXeygqlEQB7-24" value="&quot;DATO&quot; SSIDSalvado" style="edgeLabel;html=1;align=center;verticalAlign=middle;resizable=0;points=[];" parent="owBhPox71xXeygqlEQB7-23" vertex="1" connectable="0">
          <mxGeometry x="-0.4205" relative="1" as="geometry">
            <mxPoint x="20" y="-76" as="offset" />
          </mxGeometry>
        </mxCell>
        <mxCell id="owBhPox71xXeygqlEQB7-25" style="edgeStyle=orthogonalEdgeStyle;rounded=0;orthogonalLoop=1;jettySize=auto;html=1;exitX=0;exitY=0.5;exitDx=0;exitDy=0;entryX=0.95;entryY=0.836;entryDx=0;entryDy=0;entryPerimeter=0;" parent="1" source="owBhPox71xXeygqlEQB7-16" target="owBhPox71xXeygqlEQB7-2" edge="1">
          <mxGeometry relative="1" as="geometry">
            <Array as="points">
              <mxPoint x="630" y="505" />
              <mxPoint x="630" y="400" />
              <mxPoint x="433" y="400" />
            </Array>
          </mxGeometry>
        </mxCell>
        <mxCell id="owBhPox71xXeygqlEQB7-26" value="&quot;DATO&quot; PSWSalvado" style="edgeLabel;html=1;align=center;verticalAlign=middle;resizable=0;points=[];" parent="owBhPox71xXeygqlEQB7-25" vertex="1" connectable="0">
          <mxGeometry x="0.3628" y="-2" relative="1" as="geometry">
            <mxPoint as="offset" />
          </mxGeometry>
        </mxCell>
        <mxCell id="owBhPox71xXeygqlEQB7-27" value="LEER_SSID" style="html=1;whiteSpace=wrap;" parent="1" vertex="1">
          <mxGeometry x="70" y="420" width="110" height="50" as="geometry" />
        </mxCell>
        <mxCell id="owBhPox71xXeygqlEQB7-28" value="LEER_PSW" style="html=1;whiteSpace=wrap;" parent="1" vertex="1">
          <mxGeometry x="140" y="650" width="110" height="50" as="geometry" />
        </mxCell>
        <mxCell id="owBhPox71xXeygqlEQB7-30" style="edgeStyle=orthogonalEdgeStyle;rounded=0;orthogonalLoop=1;jettySize=auto;html=1;exitX=0;exitY=0.5;exitDx=0;exitDy=0;entryX=0.637;entryY=1.047;entryDx=0;entryDy=0;entryPerimeter=0;" parent="1" source="owBhPox71xXeygqlEQB7-12" target="owBhPox71xXeygqlEQB7-2" edge="1">
          <mxGeometry relative="1" as="geometry" />
        </mxCell>
        <mxCell id="owBhPox71xXeygqlEQB7-31" value="&quot;5&quot; AMenu" style="edgeLabel;html=1;align=center;verticalAlign=middle;resizable=0;points=[];" parent="owBhPox71xXeygqlEQB7-30" vertex="1" connectable="0">
          <mxGeometry x="-0.2812" y="2" relative="1" as="geometry">
            <mxPoint as="offset" />
          </mxGeometry>
        </mxCell>
        <mxCell id="owBhPox71xXeygqlEQB7-32" style="edgeStyle=orthogonalEdgeStyle;rounded=0;orthogonalLoop=1;jettySize=auto;html=1;exitX=0;exitY=0;exitDx=0;exitDy=0;entryX=1.009;entryY=0.637;entryDx=0;entryDy=0;entryPerimeter=0;" parent="1" source="owBhPox71xXeygqlEQB7-16" target="owBhPox71xXeygqlEQB7-2" edge="1">
          <mxGeometry relative="1" as="geometry">
            <Array as="points">
              <mxPoint x="660" y="480" />
              <mxPoint x="660" y="380" />
              <mxPoint x="470" y="380" />
              <mxPoint x="470" y="365" />
            </Array>
          </mxGeometry>
        </mxCell>
        <mxCell id="owBhPox71xXeygqlEQB7-33" value="&quot;5&quot; AMenu" style="edgeLabel;html=1;align=center;verticalAlign=middle;resizable=0;points=[];" parent="owBhPox71xXeygqlEQB7-32" vertex="1" connectable="0">
          <mxGeometry x="0.0395" relative="1" as="geometry">
            <mxPoint x="74" y="50" as="offset" />
          </mxGeometry>
        </mxCell>
        <mxCell id="EXYLAMPMVwgO0gLtqzKR-1" value="Grabar wifi por Bluetooth" style="text;strokeColor=none;fillColor=none;html=1;fontSize=24;fontStyle=1;verticalAlign=middle;align=center;" vertex="1" parent="1">
          <mxGeometry x="260" y="100" width="280" height="40" as="geometry" />
        </mxCell>
      </root>
    </mxGraphModel>
  </diagram>
</mxfile>
